<svg width="70" height="70" viewBox="0 0 373 354" xmlns="http://www.w3.org/2000/svg">
<g>
<rect y="75" width="373" height="203" rx="30"/>
<path d="M0 20C0 8.95431 8.95431 0 20 0H353C364.046 0 373 8.95431 373 20V26C373 42.5685 359.569 56 343 56H30C13.4315 56 0 42.5685 0 26V20Z"/>
<path d="M0 334C0 345.046 8.95431 354 20 354H353C364.046 354 373 345.046 373 334V328C373 311.431 359.569 298 343 298H30C13.4315 298 0 311.431 0 328V334Z"/>
</g>
<defs>
<clipPath id="clip0_301_21">
<rect width="373" height="354"/>
</clipPath>
</defs>
</svg>
